<svg clip-rule="evenodd" fill-rule="evenodd" stroke-linejoin="round" stroke-miterlimit="2" viewBox="0 0 4000 2253" xmlns="http://www.w3.org/2000/svg"><path d="m0 1.789h4000v2250h-4000z" fill="none"/><g fill="#1c1917"><path d="m290.473 1253.54c45.649 25.628 72.47 89.372 58.875 139.927-32.713-70.951-100.987-82.303-150.618-18.976-.63-52.347 41.164-107.447 91.743-120.951zm71.37-174.298c42.673 49.628 46.925 135.988 9.336 189.569-8.095-97.345-83.452-139.877-168.84-86.7 21.644-61.77 94.307-108.633 159.504-102.869zm69.383 115.41c-3.179 6.455-2.442 14.152 1.904 19.888 4.135 5.435 4.829 16.403 1.089 32.665-.058.254.075.513.316.614.24.101.519.016.66-.203 14.277-22.426 28.636-59.817 14.084-68.602-2.118-1.278-13.052 5.47-18.053 15.638zm139.889-103.837c-3.389 8.272-3.786 17.466-1.125 26 8.501 27.077-10.1 69.219-59.695 122.763-.706.768-.76 1.932-.128 2.761.633.83 1.769 1.086 2.697.608 94.195-49.377 218.477-150.513 185.48-209.97-6.618-11.924-101.614-4.311-127.229 57.838zm-37.853-173.041c22.129 78.783-18.683 178.885-89.588 219.737 42.264-114.58-20.651-202.591-145.504-187.453 57.163-58.556 164.26-73.263 235.092-32.284zm618.783 91.056c-103.89 74.624-272.746 68.194-370.66-14.115 190.899.822 286.54-138.645 197.554-313.944 116.572 52.659 195.431 202.108 173.106 328.059zm-342.399-156.952c-25.288 99.136-132.054 182.009-234.364 181.917 117.389-97.641 104.285-232.266-40.363-293.924 98.498-27.667 223.652 23.358 274.727 112.007zm-569.821 128.757c-5.413 4.742-13.038 6.022-19.703 3.309-6.32-2.588-17.094-.42-31.834 7.402-.23.122-.515.06-.675-.146s-.149-.497.026-.69c17.967-19.595 50.367-43.143 62.618-31.36 1.784 1.715-1.904 14.023-10.432 21.485zm172.795-205.871c-8.861-1.179-17.033-5.411-23.11-11.967-19.251-20.852-65.06-25.698-136.187-9.338-1.017.231-2.054-.302-2.458-1.264-.405-.961-.061-2.075.815-2.641 89.714-57.115 239.296-114.559 274.437-56.344 7.048 11.676-46.844 90.276-113.497 81.554z"/><path d="m776.361 1280.89v177.669l-11.93-21.303-103.108-156.366h-73.709v298.246h73.709v-175.539l11.504 20.877 103.534 154.662h73.709v-298.246z" fill-rule="nonzero"/><path d="m905.458 1280.89v298.246h177.669v-68.597h-103.959v-49.85h88.195v-68.596h-88.195v-42.607h103.959v-68.596z" fill-rule="nonzero"/><path d="m1450.39 1280.89-46.867 170-4.26 21.729-2.983-21.729-44.737-170h-68.596l-44.737 170-3.408 21.729-3.835-21.729-46.867-170h-77.544l87.343 298.246h79.674l40.051-144.437 3.408-20.877 3.835 20.877 40.05 144.437h79.674l87.343-298.246z" fill-rule="nonzero"/><path d="m1683.03 1275.35c-43.885 0-80.1 14.486-108.221 43.459-28.12 28.972-42.18 66.04-42.18 110.777 0 45.163 14.06 82.23 42.607 111.629 28.546 28.972 65.187 43.458 109.924 43.458 40.903 0 74.136-12.356 100.126-37.493 25.99-25.138 38.772-60.076 38.772-104.812v-30.677h-135.915v68.596h57.092c-4.686 21.73-26.416 35.79-60.075 35.79-23.007 0-41.328-8.095-55.388-23.86-13.634-16.19-20.451-37.067-20.451-62.631 0-25.138 6.817-45.589 20.025-61.354 13.208-16.19 30.676-24.285 52.406-24.285 34.085 0 51.128 11.929 61.353 38.772h80.526c-16.616-65.188-63.909-107.369-140.601-107.369z" fill-rule="nonzero"/><path d="m1874.76 1280.89v298.246h177.669v-68.597h-103.96v-49.85h88.196v-68.596h-88.196v-42.607h103.96v-68.596z" fill-rule="nonzero"/><path d="m2287.19 1280.89v177.669l-11.93-21.303-103.107-156.366h-73.71v298.246h73.71v-175.539l11.503 20.877 103.534 154.662h73.709v-298.246z" fill-rule="nonzero"/><path d="m2416.28 1280.89v298.246h73.709v-114.612h86.491v-68.596h-86.491v-46.442h102.256v-68.596z" fill-rule="nonzero"/><path d="m2929.27 1429.59c0-44.737-14.486-81.805-43.885-110.777-29.398-28.973-66.892-43.459-112.481-43.459s-83.082 14.486-112.481 43.459c-29.398 28.972-43.885 66.04-43.885 110.777 0 45.163 14.487 82.23 43.885 111.629 29.399 28.972 66.892 43.458 112.481 43.458s83.083-14.486 112.481-43.458c29.399-29.399 43.885-66.466 43.885-111.629zm-236.04 0c0-25.138 7.243-46.015 21.303-61.78 14.487-15.764 34.086-23.859 58.371-23.859 24.286 0 43.885 8.095 57.945 23.859 14.486 15.765 21.729 36.642 21.729 61.78 0 25.564-7.243 46.441-21.729 62.631-14.06 15.765-33.659 23.86-57.945 23.86-24.285 0-43.884-8.095-58.371-23.86-14.06-16.19-21.303-37.067-21.303-62.631z" fill-rule="nonzero"/><path d="m2971.45 1280.89v298.246h73.709v-104.812h13.208l52.832 104.812h83.509l-61.354-118.873c30.677-16.616 48.572-45.163 48.572-80.526 0-29.398-10.226-53.258-30.251-71.579s-46.441-27.268-80.1-27.268zm100.125 68.596c23.433 0 34.937 10.226 34.937 30.251s-11.504 30.251-34.937 30.251h-26.416v-60.502z" fill-rule="nonzero"/><path d="m3470.8 1280.89-72.431 171.704-5.539 16.191-5.113-16.191-72.431-171.704h-86.491v298.246h73.709v-164.036l8.521 29.399 50.276 134.637h63.484l50.275-134.637 8.522-29.399v164.036h73.709v-298.246z" fill-rule="nonzero"/><path d="m3705.13 1275.35c-30.251 0-54.963 8.521-73.284 25.564-18.32 17.043-27.268 39.624-27.268 67.744 0 48.998 29.399 76.266 88.622 94.587 32.381 10.225 45.163 19.599 45.163 34.937 0 13.634-11.078 22.156-28.547 22.156-22.581 0-34.937-11.504-36.641-34.938h-74.136c1.705 60.075 40.051 99.273 109.925 99.273 30.251 0 54.963-8.095 74.136-24.711 19.599-16.617 29.398-39.198 29.398-68.597 0-47.293-23.008-75.413-86.491-95.865-36.216-11.503-47.293-17.042-47.293-33.659 0-13.634 8.947-21.729 24.285-21.729 15.339 0 25.99 10.226 27.268 27.694h74.136c-3.409-60.927-39.624-92.456-99.273-92.456z" fill-rule="nonzero"/></g></svg>