<svg viewBox="0 0 4267 3200" xmlns="http://www.w3.org/2000/svg" xmlns:serif="http://www.serif.com/" fill-rule="evenodd" clip-rule="evenodd" stroke-linejoin="round" stroke-miterlimit="2"><path fill="none" d="M0 0H4266.67V3200H0z"/><g serif:id="logo-t-b" fill="#0c0a09"><path d="M639.658 1694.69c47.134 26.462 74.828 92.28 60.791 144.48-33.778-73.26-104.274-84.981-155.52-19.593-.651-54.051 42.504-110.944 94.729-124.887zm73.692-179.971c44.062 51.244 48.453 140.414 9.64 195.739-8.358-100.514-86.168-144.43-174.335-89.522 22.349-63.78 97.377-112.168 164.695-106.217zm71.641 119.166a19.639 19.639 0 0 0 1.966 20.535c4.27 5.612 4.987 16.937 1.125 33.728-.06.263.077.53.326.634a.553.553 0 0 0 .682-.209c14.741-23.156 29.568-61.764 14.542-70.834-2.187-1.321-13.477 5.647-18.641 16.146zm144.442-107.216a39.665 39.665 0 0 0-1.161 26.846c8.777 27.958-10.429 71.472-61.638 126.758a2.222 2.222 0 0 0 2.652 3.479c97.261-50.984 225.588-155.412 191.517-216.804-6.833-12.312-104.921-4.451-131.37 59.721zm-39.085-178.673c22.849 81.347-19.291 184.707-92.503 226.888 43.639-118.309-21.323-209.184-150.24-193.553 59.024-60.462 169.606-75.648 242.743-33.335zm638.922 94.019c-107.271 77.053-281.623 70.414-382.724-14.574 197.112.85 295.866-143.157 203.984-324.161 120.366 54.373 201.791 208.685 178.74 338.735zm-353.543-162.06c-26.111 102.363-136.351 187.933-241.991 187.839 121.209-100.82 107.679-239.826-41.677-303.49 101.704-28.568 230.931 24.117 283.668 115.651zm-588.366 132.948a19.634 19.634 0 0 1-20.344 3.416c-6.526-2.672-17.65-.433-32.87 7.643a.555.555 0 0 1-.67-.863c18.552-20.233 52.006-44.546 64.656-32.38 1.842 1.771-1.966 14.479-10.772 22.184zm178.419-212.571a39.673 39.673 0 0 1-23.862-12.357c-19.878-21.53-67.178-26.534-140.619-9.642a2.222 2.222 0 0 1-1.697-4.032c92.634-58.974 247.084-118.287 283.369-58.178 7.277 12.056-48.369 93.214-117.191 84.209z"/><path d="M1100.35 1844.99l93.02 161.401V1844.99h63.995v258.16h-69.273l-90.844-154.453v154.453h-63.995v-258.16h67.097zm373.69 0v52.32h-121.905v50.598h117.542v51.598h-117.542v51.325h124.814v52.319h-188.808v-258.16h185.899zm78.67 0l41.207 169.537 41.985-169.537h53.047l42.138 169.537 41.054-169.537h66l-70.364 258.16h-66.102l-39.173-149.919-39.173 149.919h-66.102l-70.369-258.16h65.852z" fill-rule="nonzero"/><path d="M2008.96 2103.15l-4.21-50.598 5.892 2.545c-2.882 10.909-8.192 20.41-15.93 28.504-7.738 8.094-17.364 14.345-28.879 18.754-11.514 4.408-24.155 6.613-37.923 6.613-23.956 0-45.248-5.834-63.875-17.502-18.627-11.667-33.133-27.717-43.519-48.149-10.385-20.432-15.578-43.393-15.578-68.883 0-25.631 5.237-48.748 15.712-69.352 10.474-20.605 25.366-36.741 44.675-48.408 19.309-11.668 41.576-17.502 66.801-17.502 29.611 0 54.307 7.876 74.087 23.626 19.781 15.751 33.002 37.481 39.665 65.191l-66.086 3.233c-3.238-12.488-9.052-22.232-17.441-29.231-8.39-6.999-18.957-10.499-31.702-10.499-13.295 0-24.429 3.474-33.404 10.422-8.974 6.949-15.694 16.686-20.16 29.214-4.465 12.527-6.698 26.962-6.698 43.306 0 16.343 2.233 30.657 6.698 42.942 4.466 12.285 11.211 21.902 20.237 28.85 9.026 6.948 20.135 10.422 33.327 10.422 9.632 0 17.931-1.808 24.898-5.425 6.967-3.617 12.622-8.782 16.965-15.493 4.342-6.712 7.35-14.641 9.025-23.788h-51.309v-44.741h116.314v135.949h-37.582zm239.56-258.16v52.32h-121.905v50.598h117.541v51.598h-117.541v51.325h124.813v52.319h-188.807v-258.16h185.899zm87.73 0l93.021 161.401V1844.99h63.994v258.16h-69.272l-90.845-154.453v154.453h-63.994v-258.16h67.096zm375.22 0v52.32h-155.947l36.151-37.412v118.172l-36.151-26.89h149.402v51.598h-149.402l36.151-26.89v127.262h-63.995v-258.16h183.791zm136.22 263.98c-25.888 0-48.408-5.454-67.56-16.362-19.152-10.909-33.878-26.483-44.178-46.724-10.3-20.24-15.45-44.057-15.45-71.448 0-27.634 5.15-51.632 15.45-71.994 10.3-20.362 25.026-35.997 44.178-46.905 19.152-10.908 41.672-16.363 67.56-16.363 25.884 0 48.402 5.455 67.554 16.363 19.151 10.908 33.878 26.543 44.178 46.905 10.3 20.362 15.45 44.36 15.45 71.994 0 27.391-5.15 51.208-15.45 71.448-10.3 20.241-25.027 35.815-44.178 46.724-19.152 10.908-41.67 16.362-67.554 16.362zm0-52.32c13.165 0 24.376-3.193 33.63-9.578 9.255-6.386 16.253-15.697 20.993-27.933 4.74-12.235 7.11-27.116 7.11-44.641 0-17.608-2.37-32.626-7.11-45.053s-11.738-21.859-20.993-28.296c-9.254-6.437-20.465-9.655-33.63-9.655-13.17 0-24.382 3.218-33.637 9.655-9.254 6.437-16.252 15.869-20.992 28.296-4.74 12.427-7.11 27.445-7.11 45.053 0 17.525 2.37 32.406 7.11 44.641 4.74 12.236 11.738 21.547 20.992 27.933 9.255 6.385 20.467 9.578 33.637 9.578zm257.24-211.66c18.078 0 34.249 2.976 48.513 8.928 14.264 5.953 25.533 14.762 33.807 26.43 8.274 11.668 12.411 25.66 12.411 41.977 0 12.131-2.291 22.732-6.872 31.804-4.581 9.071-11.158 16.404-19.731 21.998-8.573 5.594-18.696 9.336-30.369 11.226l-4.114-2.852c18.919 0 32.863 3.534 41.832 10.601 8.969 7.068 14.092 18.666 15.368 34.793l6.011 73.255h-64.154l-4.437-62.193c-.689-10.693-4.057-18.167-10.104-22.422-6.047-4.255-15.928-6.383-29.643-6.383h-42.905v90.998h-63.995v-258.16h118.382zm-10.527 114.843c12.961 0 22.835-2.641 29.622-7.923 6.788-5.282 10.181-13 10.181-23.154 0-10.158-3.393-17.939-10.181-23.342-6.787-5.403-16.661-8.104-29.622-8.104h-43.86v62.523h43.86zm205.777-114.843l59.494 175.258 59.291-175.258h84.777v258.16h-63.995v-158.435l-55.461 157.594h-49.433l-55.246-157.594v158.435h-63.994v-258.16h84.567zm280.9 169.23c1.58 8.549 4.558 15.923 8.934 22.123 4.377 6.201 10.166 10.962 17.368 14.286 7.202 3.324 15.645 4.985 25.33 4.985 7.359 0 13.766-.964 19.22-2.891 5.454-1.928 9.652-4.758 12.593-8.488 2.941-3.731 4.341-8.244 4.201-13.539-.14-8.075-3.993-14.661-11.559-19.757-7.565-5.096-20.597-9.865-39.096-14.308-31.717-7.322-55.6-17.291-71.65-29.91-16.05-12.618-24.074-29.044-24.074-49.277 0-15.847 4.242-29.665 12.726-41.454 8.484-11.788 20.422-20.872 35.815-27.25 15.393-6.378 33.364-9.568 53.916-9.568 19.305 0 36.539 3.691 51.703 11.071 15.163 7.38 27.312 17.812 36.446 31.298 9.133 13.486 14.74 29.141 16.819 46.965l-63.131 2.602c-.754-8.28-3.057-15.472-6.911-21.578-3.854-6.105-8.877-10.778-15.07-14.019-6.193-3.24-13.353-4.86-21.481-4.86-11.136 0-20.097 2.559-26.884 7.676-6.787 5.117-9.831 11.839-9.13 20.168.28 5.564 2.362 10.228 6.247 13.991 3.884 3.763 8.779 6.789 14.686 9.078 5.906 2.29 13.594 4.603 23.063 6.94l4.551 1.034c31.592 6.568 55.76 16.419 72.505 29.554 16.745 13.136 25.117 29.879 25.117 50.229 0 16.112-4.356 30.07-13.07 41.872-8.713 11.802-20.786 20.806-36.218 27.012-15.433 6.205-32.972 9.308-52.618 9.308-21.612 0-40.81-3.645-57.594-10.936-16.785-7.291-30.073-17.752-39.863-31.384-9.791-13.631-15.274-29.545-16.448-47.74l63.557-3.233z" fill-rule="nonzero"/></g></svg>