<svg viewBox="0 0 3200 3200" xmlns="http://www.w3.org/2000/svg" fill-rule="evenodd" clip-rule="evenodd" stroke-linejoin="round" stroke-miterlimit="2"><path fill="none" d="M0 0H3200V3200H0z"/><path d="M760.194 2089.87c100.57 56.461 159.659 196.896 129.708 308.274-72.07-156.313-222.485-181.322-331.828-41.806-1.388-115.326 90.689-236.717 202.12-266.468zm157.236-383.997c94.013 109.338 103.381 299.596 20.568 417.64-17.834-214.461-183.854-308.164-371.973-191.009 47.684-136.086 207.769-239.328 351.405-226.631zm152.858 254.26a41.899 41.899 0 0 0 4.195 43.816c9.109 11.973 10.638 36.137 2.399 71.964-.128.56.165 1.13.696 1.353a1.181 1.181 0 0 0 1.454-.447c31.454-49.407 63.088-131.784 31.029-151.136-4.667-2.818-28.755 12.049-39.773 34.45zm308.19-228.764a84.633 84.633 0 0 0-2.478 57.281c18.728 59.653-22.252 152.497-131.515 270.46a4.743 4.743 0 0 0-.282 6.083 4.741 4.741 0 0 0 5.942 1.339c207.522-108.783 481.328-331.596 408.633-462.586-14.581-26.27-223.867-9.498-280.3 127.423zm-83.394-381.228c48.753 173.568-41.161 394.103-197.372 484.104 93.112-252.432-45.496-446.329-320.561-412.979 125.936-129.005 361.883-161.406 517.933-71.125zm1363.25 200.606c-228.881 164.405-600.889 150.239-816.604-31.096 420.571 1.813 631.278-305.45 435.232-691.653 256.821 116.016 430.556 445.266 381.372 722.749zm-754.342-345.782c-55.712 218.408-290.929 400.986-516.329 400.785 258.62-215.116 229.751-511.709-88.924-647.546 217.001-60.956 492.729 51.458 605.253 246.761zm-1255.38 283.666a41.896 41.896 0 0 1-43.408 7.29c-13.924-5.702-37.66-.925-70.134 16.307a1.184 1.184 0 0 1-1.429-1.842c39.583-43.169 110.963-95.046 137.954-69.089 3.93 3.781-4.195 30.894-22.983 47.334zm380.686-453.556a84.644 84.644 0 0 1-50.914-26.365c-42.412-45.939-143.334-56.615-300.035-20.572a4.738 4.738 0 0 1-3.619-8.603c197.649-125.831 527.195-252.386 604.614-124.132 15.527 25.723-103.202 198.887-250.046 179.672z" fill="#0c0a09"/></svg>