<svg clip-rule="evenodd" fill-rule="evenodd" stroke-linejoin="round" stroke-miterlimit="2" viewBox="0 0 2250 2253" xmlns="http://www.w3.org/2000/svg"><path d="m0 1.789h2250v2250h-2250z" fill="none"/><path d="m468.902 1509.5c78.57 44.11 124.733 153.826 101.334 240.839-56.305-122.118-173.816-141.658-259.24-32.661-1.085-90.099 70.85-184.935 157.906-208.178zm122.84-299.998c73.447 85.42 80.767 234.06 16.068 326.283-13.931-167.549-143.635-240.754-290.603-149.227 37.253-106.316 162.319-186.975 274.535-177.056zm119.421 198.641c-5.472 11.112-4.204 24.359 3.276 34.231 7.118 9.355 8.313 28.232 1.875 56.222-.1.438.13.884.543 1.058.414.174.893.026 1.137-.351 24.573-38.599 49.288-102.955 24.241-118.074-3.646-2.201-22.465 9.413-31.072 26.914zm240.772-178.722c-5.831 14.238-6.516 30.064-1.935 44.752 14.631 46.604-17.384 119.138-102.745 211.296-1.217 1.322-1.31 3.325-.221 4.753s3.045 1.869 4.641 1.046c162.127-84.987 376.038-259.06 319.244-361.395-11.39-20.525-174.896-7.421-218.984 99.548zm-65.152-297.833c38.089 135.598-32.155 307.892-154.195 378.206 72.744-197.213-35.545-348.696-250.438-322.64 98.387-100.785 282.72-126.099 404.633-55.566zm1065.04 156.723c-178.813 128.442-469.445 117.374-637.972-24.295 328.571 1.416 493.185-238.632 340.026-540.352 200.64 90.636 336.371 347.864 297.946 564.647zm-589.329-270.142c-43.525 170.63-227.289 313.27-403.382 313.112 202.046-168.059 179.492-399.771-69.472-505.895 169.532-47.621 384.944 40.202 472.854 192.783zm-980.763 221.614c-9.317 8.161-22.442 10.365-33.913 5.695-10.878-4.454-29.421-.722-54.791 12.74-.398.21-.888.104-1.163-.251-.275-.354-.256-.855.045-1.188 30.924-33.727 86.69-74.256 107.777-53.976 3.07 2.953-3.278 24.136-17.955 36.98zm297.41-354.341c-15.251-2.029-29.317-9.314-39.776-20.598-33.135-35.889-111.981-44.23-234.402-16.072-1.751.397-3.535-.519-4.231-2.174-.697-1.655-.106-3.572 1.403-4.546 154.414-98.306 411.871-197.177 472.354-96.978 12.131 20.095-80.627 155.381-195.348 140.368z" fill="#1c1917"/></svg>